<svg xmlns="http://www.w3.org/2000/svg" fill="none" viewBox="0 0 298 33" height="33" width="298"><path fill="#13A538" d="M291.243 16.728c0 7.113-2.227 10.227-8.433 10.227h-4.021l-.454-.454V6.955l.454-.454h4c6.227 0 8.454 3.114 8.454 10.227zm6.227 0c0-9.773-4-15.546-15.114-15.546h-9.773l-.454.454v30.206l.454.454h9.773c11.114-.022 15.114-5.795 15.114-15.568zm-30.141 15.113V27.41l-.454-.454h-14.659l-.454-.454v-7.114l.454-.454h13.773l.454-.454v-4.432l-.454-.454h-13.773l-.454-.454V6.912l.454-.454h14.659l.454-.454V1.57l-.454-.454h-20.886l-.454.454v30.206l.454.454h20.886l.454-.39zm-32.086-21.34c0 3.114-1.773 4-4.454 4h-8.433l-.454-.454V6.933l.454-.454h8.433c2.681.022 4.454.93 4.454 4.022zm6.227 0c0-6.227-4.454-9.34-10.66-9.34h-14.659l-.454.454V31.82l.454.454h5.34l.455-.454V20.274l.454-.454h4.454l.886.454 8.887 11.546.886.454h2.66l.454-.454v-4.433l-5.773-7.546v-.454c3.502-.886 6.616-4 6.616-8.886zm-30.573 21.34V27.41l-.454-.454h-14.66l-.454-.454v-7.114l.454-.454h13.773l.454-.454v-4.432l-.454-.454h-13.773l-.454-.454V6.912l.454-.454h14.66l.454-.454V1.57l-.454-.454h-20.887l-.454.454v30.206l.454.454h20.887l.454-.39zM163.156 1.182l-.454.454-5.773 20.433h-.454l-4.432-20.433-.454-.454h-4.433l-.454.454V6.07l6.681 25.773.454.454h5.773l.454-.454 5.773-21.32h.454l5.773 21.32.455.454h5.772l.455-.454 6.659-25.773V1.636l-.454-.454h-4.432l-.455.454-4.432 20.433h-.454l-5.773-20.433-.454-.454h-5.795zm-18.075 15.546c0-9.34-5.773-16-15.114-16-9.34 0-15.113 6.66-15.113 16s5.773 16 15.113 16c9.341 0 15.114-6.66 15.114-16zm-6.227 0c0 6.227-3.114 10.66-8.887 10.66-5.773 0-8.886-4.433-8.886-10.66s3.113-10.66 8.886-10.66 8.887 4.433 8.887 10.66zm-31.871-6.227c0 3.114-1.773 4-4.432 4h-8.433l-.453-.454V6.933l.453-.454h8.433c2.659.022 4.432.93 4.432 4.022zm6.227 0c0-6.227-4.432-9.34-10.659-9.34H87.87l-.454.454V31.82l.454.454h5.34l.455-.454V20.274l.453-.454h8.433c6.205.021 10.659-3.092 10.659-9.319zm-30.594 21.34V27.41l-.454-.454h-14.66l-.454-.454v-7.114l.454-.454h13.773l.454-.454v-4.432l-.454-.454H67.502l-.454-.454V6.912l.454-.454h14.66l.454-.454V1.57l-.454-.454H61.275l-.454.454v30.206l.454.454h20.887l.454-.39zM50.55 10.501c0 3.114-1.773 4-4.433 4h-8.432l-.454-.454V6.933l.454-.454h8.432c2.66.022 4.433.93 4.433 4.022zm6.227 0c0-6.227-4.432-9.34-10.66-9.34h-14.68l-.455.454V31.82l.454.454h5.341l.454-.454V20.274l.454-.454h4.454l.887.454 8.886 11.546.887.454h2.638l.453-.454v-4.433l-5.773-7.546v-.454c3.546-.886 6.66-4 6.66-8.886zM.865 27.041a.867.867 0 00-.865.865c0 .476.39.865.865.865a.867.867 0 00.865-.865.867.867 0 00-.865-.864zm19.07-3.459a4.346 4.346 0 100 8.692 4.346 4.346 0 000-8.692zM8.67 25.312a2.602 2.602 0 00-2.594 2.595A2.602 2.602 0 008.671 30.5a2.602 2.602 0 002.594-2.594 2.602 2.602 0 00-2.594-2.595zM.865 4.62A.867.867 0 000 5.485c0 .476.39.865.865.865.476 0 .865-.39.865-.865a.867.867 0 00-.865-.865zm19.07 5.21a4.346 4.346 0 10-4.346-4.345c.021 2.4 1.967 4.346 4.346 4.346zM8.67 2.89a2.602 2.602 0 00-2.594 2.595 2.602 2.602 0 002.595 2.594 2.602 2.602 0 002.594-2.594A2.602 2.602 0 008.671 2.89zM.865 15.841a.867.867 0 00-.865.865c0 .476.39.865.865.865.476 0 .865-.39.865-.865a.867.867 0 00-.865-.865zm19.07-3.481a4.346 4.346 0 100 8.693 4.346 4.346 0 000-8.693zM8.67 14.09a2.602 2.602 0 00-2.594 2.595 2.602 2.602 0 002.595 2.595 2.602 2.602 0 002.594-2.595 2.602 2.602 0 00-2.594-2.595z"></path></svg>